<?xml version="1.0" encoding="iso-8859-1"?>
<!-- Generator: Adobe Illustrator 19.0.0, SVG Export Plug-In . SVG Version: 6.00 Build 0)  -->
<svg version="1.1" id="Capa_1" xmlns="http://www.w3.org/2000/svg" xmlns:xlink="http://www.w3.org/1999/xlink" x="0px" y="0px"
	 viewBox="0 0 480 480" style="enable-background:new 0 0 480 480;" xml:space="preserve">
<g>
	<g>
		<path d="M472,79.976H8c-4.418,0-8,3.582-8,8v272c0,4.418,3.582,8,8,8h24.8c4.396,21.65,25.51,35.636,47.16,31.24
			c15.741-3.196,28.044-15.499,31.24-31.24h257.6c4.396,21.65,25.51,35.636,47.16,31.24c15.741-3.196,28.044-15.499,31.24-31.24H472
			c4.418,0,8-3.582,8-8v-272C480,83.558,476.418,79.976,472,79.976z M72,383.976c-10.168-0.012-19.229-6.418-22.632-16h45.264
			C91.229,377.558,82.168,383.964,72,383.976z M408,383.976c-10.168-0.012-19.229-6.418-22.632-16h45.264
			C427.229,377.558,418.168,383.964,408,383.976z M464,351.976H16v-256h448V351.976z"/>
	</g>
</g>
<g>
	<g>
		<path d="M408.165,255.976c-7.892-0.016-15.612,2.302-22.189,6.664l-4.32-4.32c-3.178-3.07-8.242-2.982-11.312,0.196
			c-2.995,3.1-2.995,8.016,0,11.116l4.32,4.32c-12.199,18.375-7.192,43.161,11.184,55.36c6.565,4.358,14.272,6.677,22.152,6.664
			c22.091,0.046,40.037-17.826,40.083-39.917C448.128,273.967,430.257,256.022,408.165,255.976z M408,319.976
			c-13.255,0-24-10.745-24-24c0.014-3.564,0.834-7.078,2.4-10.28l15.936,15.936c3.178,3.07,8.242,2.982,11.312-0.196
			c2.995-3.1,2.995-8.016,0-11.116l-15.928-15.944c3.202-1.566,6.716-2.386,10.28-2.4c13.255,0,24,10.745,24,24
			S421.255,319.976,408,319.976z"/>
	</g>
</g>
<g>
	<g>
		<path d="M268.088,127.976H83.912c-28.65,0.048-51.864,23.262-51.912,51.912v88.176c0.048,28.65,23.262,51.864,51.912,51.912
			h184.176c28.65-0.048,51.864-23.262,51.912-51.912v-88.176C319.952,151.238,296.738,128.025,268.088,127.976z M304,268.064
			c-0.022,19.824-16.087,35.89-35.912,35.912H83.912c-19.824-0.022-35.89-16.088-35.912-35.912v-88.176
			c0.022-19.825,16.087-35.89,35.912-35.912h184.176c19.825,0.022,35.89,16.087,35.912,35.912V268.064z"/>
	</g>
</g>
<g>
	<g>
		<path d="M440,111.976h-64c-4.418,0-8,3.582-8,8v32c0,4.418,3.582,8,8,8h64c4.418,0,8-3.582,8-8v-32
			C448,115.558,444.418,111.976,440,111.976z M432,143.976h-48v-16h48V143.976z"/>
	</g>
</g>
<g>
	<g>
		<path d="M432,207.976h-48c-4.418,0-8,3.582-8,8s3.582,8,8,8h48c4.418,0,8-3.582,8-8S436.418,207.976,432,207.976z"/>
	</g>
</g>
<g>
	<g>
		<path d="M432,175.976h-48c-4.418,0-8,3.582-8,8s3.582,8,8,8h48c4.418,0,8-3.582,8-8S436.418,175.976,432,175.976z"/>
	</g>
</g>
<g>
	<g>
		<path d="M344,111.976c-4.418,0-8,3.582-8,8v208c0,4.418,3.582,8,8,8s8-3.582,8-8v-208C352,115.558,348.418,111.976,344,111.976z"
			/>
	</g>
</g>
<g>
	<g>
		<path d="M272,239.976H80c-4.418,0-8,3.582-8,8c0.026,22.08,17.92,39.974,40,40h128c22.08-0.026,39.974-17.92,40-40
			C280,243.558,276.418,239.976,272,239.976z M240,271.976H112c-10.168-0.012-19.229-6.418-22.632-16h173.264
			C259.229,265.558,250.168,271.964,240,271.976z"/>
	</g>
</g>
<g>
	<g>
		<path d="M173.656,173.632c3.069-3.178,2.981-8.243-0.197-11.312c-3.1-2.994-8.015-2.994-11.115,0l-8,8
			c-7.52,7.551-7.52,19.761,0,27.312c1.292,1.296,1.292,3.392,0,4.688l-8,8c-3.124,3.125-3.123,8.19,0.002,11.314
			c1.5,1.499,3.534,2.342,5.654,2.342c2.122,0,4.156-0.844,5.656-2.344l8-8c7.52-7.551,7.52-19.761,0-27.312
			c-1.292-1.296-1.292-3.392,0-4.688L173.656,173.632z"/>
	</g>
</g>
<g>
	<g>
		<path d="M213.656,173.632c3.069-3.178,2.981-8.243-0.197-11.312c-3.1-2.994-8.015-2.994-11.115,0l-8,8
			c-7.52,7.551-7.52,19.761,0,27.312c1.292,1.296,1.292,3.392,0,4.688l-8,8c-3.124,3.125-3.123,8.19,0.002,11.314
			c1.5,1.499,3.534,2.342,5.654,2.342c2.122,0,4.156-0.844,5.656-2.344l8-8c7.52-7.551,7.52-19.761,0-27.312
			c-1.292-1.296-1.292-3.392,0-4.688L213.656,173.632z"/>
	</g>
</g>
<g>
</g>
<g>
</g>
<g>
</g>
<g>
</g>
<g>
</g>
<g>
</g>
<g>
</g>
<g>
</g>
<g>
</g>
<g>
</g>
<g>
</g>
<g>
</g>
<g>
</g>
<g>
</g>
<g>
</g>
</svg>
