<svg id="Capa_1" enable-background="new 0 0 511.945 511.945" height="40" viewBox="0 0 511.945 511.945" width="40" xmlns="http://www.w3.org/2000/svg" xmlns:xlink="http://www.w3.org/1999/xlink"><linearGradient id="SVGID_1_" gradientUnits="userSpaceOnUse" x1="255.973" x2="255.973" y1="511.945" y2="0"><stop offset="0" stop-color="#5558ff"/><stop offset="1" stop-color="#00c0ff"/></linearGradient><linearGradient id="SVGID_2_" gradientUnits="userSpaceOnUse" x1="375.941" x2="375.941" y1="121" y2="91"><stop offset="0" stop-color="#addcff"/><stop offset=".5028" stop-color="#eaf6ff"/><stop offset="1" stop-color="#eaf6ff"/></linearGradient><g><g><g><path d="m435.941 0h-120c-41.355 0-75 33.645-75 75v61c0 36.219 25.809 66.524 60 73.493v31.507c0 5.682 3.21 10.875 8.292 13.417 5.074 2.537 11.156 1.997 15.708-1.417l56-42h55c41.466 0 76-33.542 76-75v-61c0-41.466-34.541-75-76-75zm30.65 402.816-106.066-76.066c-4.941-3.544-11.534-3.754-16.69-.531l-59.759 37.342c-3.214.616-17.185-1.999-44.198-21.554-22.712-16.44-47.051-39.459-65.106-61.574-26.753-32.769-28.747-49.291-27.279-52.995l37.52-60.042c3.223-5.157 3.013-11.749-.531-16.691l-76.068-106.065c-2.567-3.579-6.577-5.849-10.966-6.208-4.385-.359-8.715 1.229-11.83 4.343l-54.729 54.725c-31.002 31-39.632 78.204-21.475 117.463 24.279 52.493 55.799 101 93.685 144.174 54.159 61.718 119.625 110.187 194.582 144.061 38.376 17.344 84.806 8.384 115.519-22.33l55.256-55.255c3.114-3.115 4.703-7.44 4.344-11.83-.36-4.39-2.63-8.4-6.209-10.967z" fill="url(#SVGID_1_)"/></g></g><g><g><path d="m315.941 91c-8.284 0-15 6.716-15 15s6.716 15 15 15 15-6.716 15-15-6.715-15-15-15zm60 0c-8.284 0-15 6.716-15 15s6.716 15 15 15 15-6.716 15-15-6.715-15-15-15zm60 0c-8.284 0-15 6.716-15 15s6.716 15 15 15 15-6.716 15-15-6.715-15-15-15z" fill="url(#SVGID_2_)"/></g></g></g></svg>
