<svg height="512" viewBox="0 0 74 74" width="512" xmlns="http://www.w3.org/2000/svg"><g id="line_icons" data-name="line icons"><path d="m69.688 21.51h-65.376a1 1 0 0 1 -1-1v-11.397a7.127 7.127 0 0 1 7.126-7.113h53.124a7.127 7.127 0 0 1 7.126 7.113v11.4a1 1 0 0 1 -1 .997zm-64.376-2h63.376v-10.397a5.125 5.125 0 0 0 -5.126-5.113h-53.124a5.125 5.125 0 0 0 -5.126 5.113z"/><path d="m51.462 15.189a3.312 3.312 0 1 1 3.305-3.318 3.315 3.315 0 0 1 -3.305 3.318zm0-4.623a1.312 1.312 0 1 0 1.3 1.3 1.306 1.306 0 0 0 -1.3-1.3z"/><path d="m60.848 15.189a3.312 3.312 0 1 1 3.318-3.318 3.315 3.315 0 0 1 -3.318 3.318zm0-4.623a1.312 1.312 0 0 0 0 2.623 1.312 1.312 0 1 0 0-2.623z"/><path d="m42.2 16.417h-12.263a1.915 1.915 0 0 1 -1.912-1.912v-4.465a1.914 1.914 0 0 1 1.912-1.912h12.263a1.913 1.913 0 0 1 1.911 1.912v4.465a1.914 1.914 0 0 1 -1.911 1.912zm-12.178-2h12.092v-4.289h-12.089z"/><path d="m37 65.4a19.457 19.457 0 1 1 19.455-19.457 19.48 19.48 0 0 1 -19.455 19.457zm0-36.914a17.457 17.457 0 1 0 17.455 17.457 17.477 17.477 0 0 0 -17.455-17.457z"/><path d="m36.994 60.961a15.032 15.032 0 0 1 -15.009-15.02c0-.383.014-.754.04-1.124 0-.018.01-.111.012-.129a.941.941 0 0 1 .759-.919 18.826 18.826 0 0 1 10.463.615c5.851 1.934 12.564.086 17.165-1.806a1 1 0 0 1 1.366.755 15.467 15.467 0 0 1 .225 2.608 15.038 15.038 0 0 1 -15.021 15.02zm-13-15.407c0 .129-.006.257-.006.387a13.015 13.015 0 1 0 26.03 0c0-.343-.014-.689-.041-1.035-4.84 1.829-11.416 3.337-17.341 1.378a17.175 17.175 0 0 0 -8.645-.73z"/><path d="m38.675 47.2a19.185 19.185 0 0 1 -6.042-.92 16.832 16.832 0 0 0 -9.359-.573 1.01 1.01 0 0 1 -.889-.211 1 1 0 0 1 -.346-.846 15.018 15.018 0 0 1 29.75-1.325 1 1 0 0 1 -.6 1.1 33.906 33.906 0 0 1 -12.514 2.775zm-11.875-3.909a20.7 20.7 0 0 1 6.457 1.093c5.533 1.829 11.836.276 16.4-1.5a13.018 13.018 0 0 0 -25.435.6 16.973 16.973 0 0 1 2.578-.193z"/><path d="m12.216 13.909a1 1 0 0 1 -1-1v-1.274a1 1 0 0 1 2 0v1.274a1 1 0 0 1 -1 1z"/><path d="m18.9 13.909a1 1 0 0 1 -1-1v-1.274a1 1 0 1 1 2 0v1.274a1 1 0 0 1 -1 1z"/><path d="m63.562 72h-53.124a7.133 7.133 0 0 1 -7.126-7.125v-44.365a1 1 0 0 1 1-1h65.376a1 1 0 0 1 1 1v44.365a7.133 7.133 0 0 1 -7.126 7.125zm-58.25-50.49v43.365a5.131 5.131 0 0 0 5.126 5.125h53.124a5.131 5.131 0 0 0 5.126-5.125v-43.365z"/><path d="m69.688 21.51h-65.376a1 1 0 0 1 -1-1v-11.397a7.127 7.127 0 0 1 7.126-7.113h53.124a7.127 7.127 0 0 1 7.126 7.113v11.4a1 1 0 0 1 -1 .997zm-64.376-2h63.376v-10.397a5.125 5.125 0 0 0 -5.126-5.113h-53.124a5.125 5.125 0 0 0 -5.126 5.113z"/></g></svg>